<svg width="12" height="14" viewBox="0 0 12 14" fill="none" xmlns="http://www.w3.org/2000/svg">
<path fill-rule="evenodd" clip-rule="evenodd" d="M4.16668 -2.78163e-08C4.51813 -1.24538e-08 4.80304 0.28491 4.80304 0.636364L4.80304 5.72727C4.80304 6.07873 4.51813 6.36364 4.16668 6.36364C3.81522 6.36364 3.53031 6.07873 3.53031 5.72727L3.53031 0.636364C3.53031 0.28491 3.81522 -4.31789e-08 4.16668 -2.78163e-08Z" fill="black"/>
<path fill-rule="evenodd" clip-rule="evenodd" d="M4.37877 2.54532H0.772716C0.421262 2.54532 0.136353 2.83023 0.136353 3.18168C0.136353 3.53314 0.421262 3.81805 0.772716 3.81805H4.37877V2.54532ZM6.07574 3.81805H12.2273C12.5787 3.81805 12.8636 3.53314 12.8636 3.18168C12.8636 2.83023 12.5787 2.54532 12.2273 2.54532H6.07574V3.81805Z" fill="black"/>
<path fill-rule="evenodd" clip-rule="evenodd" d="M8.83332 14.0001C8.48187 14.0001 8.19696 13.7152 8.19696 13.3638L8.19696 8.27285C8.19696 7.9214 8.48187 7.63649 8.83332 7.63649C9.18478 7.63649 9.46969 7.9214 9.46969 8.27285L9.46969 13.3638C9.46969 13.7152 9.18478 14.0001 8.83332 14.0001Z" fill="black"/>
<path fill-rule="evenodd" clip-rule="evenodd" d="M8.62123 11.4548L12.2273 11.4548C12.5787 11.4548 12.8636 11.1699 12.8636 10.8184C12.8636 10.467 12.5787 10.1821 12.2273 10.1821L8.62123 10.1821L8.62123 11.4548ZM6.92426 10.1821L0.772739 10.1821C0.421285 10.1821 0.136375 10.467 0.136375 10.8184C0.136374 11.1699 0.421285 11.4548 0.772738 11.4548L6.92426 11.4548L6.92426 10.1821Z" fill="black"/>
</svg>
